<?xml version="1.0" standalone="no"?>
<!DOCTYPE svg PUBLIC "-//W3C//DTD SVG 20010904//EN"
 "http://www.w3.org/TR/2001/REC-SVG-20010904/DTD/svg10.dtd">
<svg version="1.0" xmlns="http://www.w3.org/2000/svg"
 width="985.000000pt" height="934.000000pt" viewBox="0 0 985.000000 934.000000"
 preserveAspectRatio="xMidYMid meet">

<g transform="translate(0.000000,934.000000) scale(0.100000,-0.100000)"
fill="#000000" stroke="none">
<path d="M4665 9333 c-134 -7 -377 -35 -538 -63 -1462 -251 -2717 -1183 -3383
-2512 -356 -711 -528 -1528 -486 -2311 25 -463 96 -841 237 -1262 352 -1054
1070 -1947 2030 -2522 579 -348 1221 -561 1926 -639 191 -22 701 -25 889 -6
607 62 1141 214 1659 473 471 235 853 510 1226 884 772 772 1234 1759 1347
2875 16 163 16 679 0 840 -109 1063 -519 1984 -1230 2756 -369 401 -829 746
-1332 998 -730 365 -1525 531 -2345 489z m370 -410 c78 -41 109 -98 109 -203
-1 -171 -86 -246 -274 -238 l-75 3 -3 220 c-1 121 0 226 3 234 9 22 188 10
240 -16z m-409 3 c14 -37 51 -432 42 -443 -6 -7 -23 -13 -38 -13 -34 0 -46 15
-183 218 -54 79 -97 140 -97 137 0 -3 9 -85 20 -182 11 -98 18 -183 16 -190
-3 -7 -17 -13 -30 -13 -21 0 -26 6 -30 33 -7 39 -46 392 -46 411 0 17 51 30
78 22 10 -4 68 -78 127 -166 60 -88 111 -158 113 -155 3 2 -3 76 -13 164 -10
88 -15 167 -12 176 8 19 46 20 53 1z m828 -17 c47 -13 83 -50 92 -95 8 -44
-21 -104 -61 -124 l-31 -15 20 -34 c21 -37 66 -187 58 -196 -3 -3 -16 -5 -29
-5 -27 0 -32 11 -63 116 -22 80 -42 102 -93 111 l-35 5 -7 -58 c-16 -142 -18
-149 -45 -146 -14 2 -27 6 -29 8 -5 5 37 392 46 433 6 23 8 23 72 17 36 -4 83
-11 105 -17z m-1307 -71 c-3 -9 -40 -22 -91 -33 -96 -20 -94 -17 -74 -104 13
-57 13 -57 103 -36 55 13 61 13 72 -2 20 -26 1 -38 -78 -52 l-71 -13 6 -42
c12 -77 26 -116 42 -116 8 0 47 7 85 16 74 17 99 14 99 -10 0 -21 -6 -23 -127
-51 -84 -19 -111 -22 -119 -12 -20 21 -103 426 -89 437 6 5 58 20 115 33 85
19 108 21 119 11 7 -7 11 -19 8 -26z m1735 0 c13 -11 47 -233 71 -463 1 -13
-5 -21 -18 -23 -35 -4 -46 13 -52 76 l-6 61 -76 16 c-42 9 -85 19 -96 21 -16
3 -27 -7 -51 -48 -26 -46 -34 -53 -58 -51 -16 1 -31 4 -33 7 -3 3 53 97 123
210 112 179 132 205 155 206 14 0 32 -6 41 -12z m-2132 -117 c16 -16 32 -40
36 -55 9 -38 -3 -90 -26 -111 -20 -18 -20 -18 9 -36 36 -22 145 -155 137 -167
-15 -25 -48 -20 -74 11 -15 18 -48 54 -74 81 -45 46 -50 48 -89 43 -22 -3 -43
-8 -47 -11 -3 -4 6 -44 21 -89 15 -46 27 -90 27 -99 0 -19 -38 -35 -50 -21
-13 14 -142 425 -135 431 17 18 136 51 183 51 46 1 58 -3 82 -28z m2659 -36
c111 -43 147 -69 176 -130 23 -47 26 -62 20 -106 -4 -28 -21 -79 -39 -112 -63
-123 -153 -150 -309 -93 -43 16 -80 33 -83 37 -9 15 155 429 170 429 1 0 31
-11 65 -25z m-3019 -259 c89 -96 162 -178 163 -183 0 -4 -12 -12 -27 -18 -26
-9 -32 -6 -70 36 l-42 47 -88 -37 -88 -36 5 -63 c4 -58 3 -64 -19 -79 -14 -9
-28 -12 -32 -9 -7 8 -30 321 -31 432 -1 54 2 62 22 72 12 6 27 11 33 11 6 1
84 -77 174 -173z m3515 42 c58 -29 105 -55 105 -58 0 -4 -6 -14 -13 -24 -13
-17 -18 -16 -89 23 -41 22 -79 41 -84 41 -10 0 -64 -102 -64 -120 0 -5 32 -26
70 -45 63 -32 69 -37 60 -55 -6 -11 -13 -20 -16 -20 -2 0 -36 16 -74 35 l-70
35 -35 -70 c-19 -38 -35 -72 -35 -75 0 -2 36 -23 80 -45 78 -39 89 -51 71 -78
-6 -11 -33 -1 -120 42 -61 31 -111 61 -111 66 0 27 196 400 211 400 5 0 56
-24 114 -52z m-3942 -109 c27 -46 76 -133 110 -193 l61 -109 -23 -18 c-13 -11
-31 -19 -40 -19 -9 0 -91 46 -182 103 -90 56 -170 107 -177 111 -17 10 -16 8
89 -176 44 -75 79 -142 79 -147 0 -9 -31 -31 -44 -31 -6 0 -226 385 -226 397
0 10 53 43 69 43 10 0 220 -129 334 -204 23 -15 12 7 -63 139 -49 86 -90 161
-90 166 0 11 32 29 45 25 5 -1 32 -41 58 -87z m4162 -2 c17 -13 16 -22 -29
-212 -26 -109 -45 -199 -43 -201 1 -2 74 55 162 127 142 116 160 128 177 117
11 -7 20 -17 21 -23 2 -12 -363 -305 -379 -305 -7 0 -22 8 -35 19 l-23 19 37
163 c20 90 44 197 53 237 16 73 26 83 59 59z m-1765 -216 c769 -100 1446 -427
1999 -966 577 -561 936 -1284 1036 -2085 23 -181 30 -477 16 -660 -55 -720
-297 -1352 -737 -1920 -115 -149 -446 -480 -594 -594 -614 -473 -1290 -718
-2055 -742 -828 -27 -1640 243 -2290 762 -143 114 -437 409 -549 549 -409 515
-658 1114 -743 1780 -24 195 -24 615 0 810 72 563 260 1077 559 1524 608 908
1564 1471 2653 1561 171 14 526 4 705 -19z m-2817 -314 c53 -33 97 -66 97 -74
0 -7 -11 -18 -23 -24 -20 -9 -32 -6 -75 21 -31 19 -57 28 -64 24 -14 -9 -138
-107 -138 -109 0 -1 9 -28 20 -60 l20 -59 -20 -20 c-12 -13 -23 -17 -29 -11
-5 6 -42 110 -82 233 l-74 224 28 24 27 23 108 -66 c59 -37 151 -93 205 -126z
m5226 70 c22 -15 52 -47 67 -72 22 -39 25 -50 16 -71 -17 -35 -37 -29 -51 15
-12 42 -57 87 -97 97 -51 13 -95 -5 -155 -65 -69 -69 -89 -119 -70 -181 14
-47 66 -87 124 -96 38 -7 46 -21 25 -42 -37 -37 -149 17 -193 93 -62 106 3
262 138 330 67 34 137 31 196 -8z m-5669 -183 c41 -137 44 -144 103 -209 l60
-66 -22 -22 -22 -22 -62 67 c-62 67 -62 67 -202 117 -145 51 -170 70 -122 92
20 9 41 4 127 -30 57 -22 106 -39 108 -36 3 3 -40 142 -65 212 -6 15 37 58 47
47 4 -5 26 -73 50 -150z m5941 -80 c42 -21 107 -99 119 -143 19 -70 -11 -141
-89 -214 -89 -84 -166 -105 -246 -68 -44 20 -110 87 -125 127 -27 71 0 154 75
229 87 87 181 112 266 69z m-6223 -124 c40 -24 64 -77 56 -119 -6 -30 -5 -31
28 -31 54 0 193 -54 193 -75 0 -36 -30 -41 -97 -16 -35 14 -82 26 -106 29 -38
4 -48 0 -73 -24 l-30 -29 78 -72 78 -72 -22 -22 -21 -22 -171 153 c-94 84
-171 156 -171 160 0 13 105 123 135 141 39 24 82 24 123 -1z m6532 -224 c0 -6
-69 -65 -154 -131 -85 -66 -153 -125 -151 -132 2 -6 25 -39 51 -72 39 -51 45
-63 34 -76 -7 -8 -18 -15 -24 -14 -13 0 -141 165 -141 181 0 6 79 74 175 149
163 129 176 137 192 122 10 -9 18 -21 18 -27z m-6782 -182 c87 -25 187 -54
225 -65 37 -11 67 -23 67 -27 0 -4 -8 -17 -18 -29 l-17 -23 -62 19 -63 19 -48
-66 c-27 -37 -52 -73 -56 -79 -4 -7 9 -36 28 -65 32 -47 34 -54 22 -73 -7 -11
-17 -20 -22 -20 -10 0 -273 385 -274 400 0 19 31 55 47 55 8 0 85 -21 171 -46z
m6974 -69 c6 -14 9 -27 7 -29 -2 -2 -74 -49 -159 -106 -85 -56 -159 -106 -163
-110 -5 -4 13 -40 39 -79 39 -59 45 -73 34 -86 -7 -8 -18 -15 -24 -15 -9 0
-98 129 -130 187 -4 8 59 56 181 138 103 69 191 125 196 125 4 0 13 -11 19
-25z m-7127 -295 c88 -50 164 -95 168 -100 10 -9 -9 -50 -24 -50 -5 0 -49 22
-96 50 l-87 49 -48 -82 c-26 -45 -48 -87 -48 -94 0 -6 38 -33 85 -59 85 -48
101 -68 71 -93 -11 -10 -53 10 -210 100 -108 61 -196 117 -196 123 0 7 6 20
13 30 13 17 18 15 95 -29 46 -26 84 -46 86 -44 2 2 27 43 54 90 l50 86 -72 41
c-109 63 -102 56 -82 87 l17 26 32 -20 c18 -11 104 -61 192 -111z m7360 -81
c39 -69 51 -97 43 -106 -21 -25 -37 -12 -79 65 -23 42 -43 79 -45 81 -4 5
-124 -63 -124 -70 0 -4 16 -35 35 -70 37 -64 39 -89 8 -89 -12 0 -30 23 -52
65 -19 36 -39 65 -44 65 -12 0 -137 -70 -137 -77 0 -3 21 -42 46 -86 36 -62
43 -81 33 -88 -8 -5 -19 -9 -26 -9 -19 0 -128 201 -117 217 5 8 92 61 194 118
153 86 187 101 198 91 8 -8 38 -56 67 -107z m-7735 -219 c12 -8 8 -15 -23 -41
-104 -86 -86 -193 44 -258 139 -69 242 -22 246 112 1 32 4 61 6 64 3 2 15 0
26 -7 17 -9 21 -20 21 -63 0 -65 -26 -123 -73 -164 -64 -56 -147 -57 -256 -1
-147 75 -183 222 -81 329 37 39 62 47 90 29z m7829 -60 c100 -51 172 -230 109
-274 -28 -20 -41 -10 -35 28 7 46 -16 123 -48 156 -57 59 -139 63 -231 10 -65
-37 -99 -97 -89 -157 8 -44 49 -113 68 -113 14 0 117 47 117 54 0 2 -9 25 -20
51 -22 50 -19 65 9 65 13 0 28 -21 50 -70 17 -39 31 -75 31 -80 0 -11 -134
-76 -177 -86 -44 -11 -112 76 -133 170 -31 139 87 263 253 265 39 1 70 -5 96
-19z m252 -517 c31 -94 35 -114 23 -124 -25 -20 -39 -3 -64 77 -13 44 -26 82
-30 86 -3 4 -35 -2 -72 -14 l-66 -21 26 -75 c24 -72 24 -76 6 -89 -23 -17 -27
-12 -54 72 -13 39 -24 71 -25 72 -1 2 -36 -9 -79 -23 -56 -19 -76 -30 -72 -40
23 -60 47 -157 42 -170 -3 -8 -13 -14 -23 -12 -23 4 -99 230 -81 241 25 16
393 136 412 134 15 -2 27 -26 57 -114z m-7886 86 c4 -5 4 -21 1 -35 -6 -22
-11 -24 -74 -24 l-68 0 -27 -83 c-15 -46 -27 -88 -27 -94 0 -6 22 -28 49 -48
47 -34 49 -37 39 -65 -5 -17 -12 -30 -14 -30 -3 0 -90 68 -195 151 -177 141
-190 153 -184 178 4 14 11 31 16 36 6 6 107 12 237 16 125 3 230 6 234 7 4 1
10 -3 13 -9z m7802 -1203 c3 -2 0 -30 -6 -62 -6 -31 -10 -59 -8 -60 1 -2 22
13 46 32 24 18 50 34 57 34 16 0 47 -57 41 -73 -2 -7 -28 -21 -56 -31 -29 -10
-49 -22 -44 -26 4 -4 29 -15 56 -25 54 -20 60 -39 24 -80 l-23 -27 -52 41 -52
41 7 -47 c12 -89 13 -88 -37 -88 l-45 0 3 45 c1 25 4 56 8 69 4 21 0 20 -48
-19 l-53 -42 -22 27 c-36 41 -30 60 25 80 26 10 51 21 55 25 5 4 -15 17 -45
28 -60 22 -69 42 -39 82 22 27 38 23 100 -27 l34 -28 -6 30 c-19 96 -19 103 0
108 18 5 73 0 80 -7z m-8148 -75 c11 -7 12 -21 4 -70 -10 -66 -11 -66 50 -18
41 32 61 30 78 -7 17 -36 6 -51 -50 -72 -28 -10 -48 -21 -44 -25 5 -3 29 -14
56 -24 54 -20 60 -39 25 -79 l-23 -26 -51 39 -51 39 9 -56 c12 -74 7 -84 -39
-80 l-38 3 1 63 c0 34 -1 62 -4 62 -3 0 -24 -16 -48 -35 -23 -19 -45 -35 -48
-35 -9 0 -46 62 -46 76 0 6 27 22 61 34 l61 23 -61 25 c-34 13 -61 29 -61 34
0 19 34 68 48 68 7 0 34 -16 58 -36 49 -40 51 -38 35 44 -7 34 -5 44 8 52 20
12 52 12 70 1z m4985 -3813 c3 -29 6 -76 6 -105 0 -81 6 -87 47 -56 44 34 125
43 171 19 70 -36 113 -165 92 -275 -12 -63 -19 -78 -59 -115 -26 -25 -42 -30
-91 -34 -52 -4 -66 -1 -100 22 l-39 25 -3 -27 c-2 -23 -8 -27 -33 -27 l-30 0
-21 305 c-11 168 -19 308 -17 313 2 4 19 7 37 7 33 0 33 -1 40 -52z m-1556
-208 c35 -129 66 -243 70 -253 5 -12 37 56 103 220 l97 238 32 3 c18 2 36 0
41 -5 4 -4 -45 -132 -110 -283 l-118 -275 -49 0 -49 0 -81 290 c-45 160 -79
294 -77 298 3 4 21 7 41 5 l37 -3 63 -235z m772 -60 l0 -260 111 0 110 0 -3
-32 -3 -33 -130 0 c-71 0 -138 3 -147 7 -17 7 -18 30 -18 293 l0 285 40 0 40
0 0 -260z m540 97 c49 -34 53 -52 61 -231 5 -94 4 -175 0 -179 -17 -17 -56 -3
-59 21 l-3 23 -30 -25 c-61 -52 -155 -47 -208 10 -31 33 -33 40 -28 87 3 41
11 56 35 78 37 33 88 49 160 49 l52 0 0 40 c0 57 -26 80 -90 80 -31 0 -66 -8
-91 -20 -42 -22 -59 -20 -59 9 0 63 192 106 260 58z m-722 -183 c5 -35 -17
-41 -120 -36 -99 4 -115 12 -101 47 4 13 24 15 112 13 99 -3 106 -4 109 -24z"/>
<path d="M4850 8716 c0 -199 -3 -192 88 -180 102 12 150 85 139 207 -9 102
-59 147 -164 147 l-63 0 0 -174z"/>
<path d="M5330 8848 c0 -13 -3 -46 -6 -74 l-6 -51 41 -7 c82 -13 134 32 117
100 -8 30 -57 54 -111 54 -30 0 -35 -3 -35 -22z"/>
<path d="M5775 8675 c-32 -52 -56 -97 -54 -99 9 -7 149 -33 149 -27 -2 30 -29
214 -33 217 -2 3 -30 -38 -62 -91z"/>
<path d="M3598 8684 l-47 -14 25 -74 25 -75 41 15 c23 8 48 20 56 26 40 33 32
106 -14 127 -30 13 -27 13 -86 -5z"/>
<path d="M6365 8623 c-44 -115 -115 -305 -115 -311 0 -13 92 -42 130 -42 56 0
94 31 130 104 54 109 34 188 -60 236 -59 30 -77 33 -85 13z"/>
<path d="M3215 8495 c2 -16 7 -69 11 -117 3 -49 8 -88 10 -88 12 0 134 55 134
60 0 4 -36 45 -80 91 -72 76 -79 81 -75 54z"/>
<path d="M4605 7637 c-35 -16 -2124 -1149 -2171 -1178 -67 -41 -65 -8 -62
-831 3 -725 3 -744 23 -770 46 -61 -20 -58 1186 -58 1194 0 1125 -3 1179 55
l25 27 0 1337 c0 1260 -1 1338 -18 1364 -36 55 -107 79 -162 54z m-997 -879
c8 -8 12 -48 12 -115 l0 -103 -27 -6 c-41 -11 -53 15 -53 117 0 66 4 91 16
103 19 19 36 20 52 4z m-440 -257 c39 -38 72 -75 72 -83 0 -18 -20 -38 -38
-38 -26 0 -162 130 -162 154 0 58 43 47 128 -33z m958 43 c6 -23 -2 -34 -67
-95 -75 -69 -95 -79 -117 -57 -24 24 -11 47 60 112 80 73 113 84 124 40z
m-438 -99 c205 -49 352 -222 352 -416 0 -114 -48 -217 -152 -324 -60 -63 -89
-130 -97 -232 -12 -144 -37 -163 -211 -163 -167 0 -194 21 -202 155 -6 105
-38 176 -119 263 -36 38 -75 93 -93 131 -29 61 -31 74 -31 171 0 98 2 109 32
171 58 118 176 211 309 243 77 19 135 19 212 1z m-627 -355 c21 -12 25 -40 7
-58 -13 -13 -192 -17 -222 -6 -21 8 -20 50 2 63 22 14 188 14 213 1z m1260 0
c21 -12 25 -40 7 -58 -8 -8 -48 -12 -113 -12 -65 0 -105 4 -113 12 -17 17 -15
45 6 57 22 14 188 14 213 1z m-1100 -360 c34 -19 21 -47 -53 -114 -55 -50 -79
-66 -98 -64 -19 2 -26 10 -28 29 -2 21 10 37 73 92 42 37 78 67 81 67 3 0 14
-5 25 -10z m835 -62 c82 -79 93 -110 41 -116 -22 -3 -40 9 -97 64 -70 67 -81
89 -58 112 22 22 39 13 114 -60z m-306 -398 c8 -15 6 -24 -10 -40 -18 -18 -33
-20 -147 -20 -146 0 -170 5 -178 32 -14 42 8 48 171 48 142 0 154 -1 164 -20z
m-12 -79 c8 -4 12 -19 10 -32 l-3 -24 -159 0 c-137 0 -160 2 -169 17 -8 12 -7
21 2 32 11 13 38 16 160 16 80 0 152 -4 159 -9z m-60 -115 c6 -28 -15 -36
-101 -36 -80 0 -97 9 -83 45 5 13 22 15 93 13 77 -3 88 -5 91 -22z"/>
<path d="M5154 7643 c-12 -2 -36 -17 -55 -32 l-34 -29 -3 -1341 c-2 -1470 -6
-1378 55 -1418 25 -17 97 -18 1138 -21 1064 -2 1111 -2 1145 16 73 39 70 3 70
807 0 439 -4 733 -10 754 -13 46 -42 75 -114 112 -60 32 -1802 977 -2006 1089
-104 57 -146 71 -186 63z m1193 -908 c13 -132 14 -135 44 -151 30 -15 30 -15
74 33 l45 48 38 -41 c20 -23 43 -53 51 -67 13 -25 12 -30 -22 -82 -36 -53 -37
-56 -25 -99 l12 -44 57 -6 57 -7 7 -46 c3 -25 4 -67 0 -93 l-7 -48 -57 -6 -57
-7 -12 -44 c-11 -42 -10 -47 18 -92 17 -26 30 -39 30 -30 0 18 56 50 106 61
l32 7 21 -70 c17 -55 26 -71 40 -71 11 0 26 -3 35 -6 11 -4 23 11 46 55 16 34
33 61 36 61 14 0 82 -41 101 -62 l23 -24 -22 -66 c-22 -66 -22 -67 -3 -102 11
-20 22 -36 25 -36 3 0 29 7 58 14 52 14 53 14 61 -7 15 -40 33 -138 27 -152
-3 -8 -28 -26 -56 -40 -49 -25 -50 -27 -50 -69 0 -39 5 -48 46 -86 l46 -43
-12 -41 c-14 -47 -48 -116 -56 -116 -4 0 -28 12 -55 27 l-49 26 -26 -24 c-24
-22 -26 -28 -20 -86 4 -35 9 -70 12 -78 5 -11 -9 -22 -50 -41 -31 -14 -64 -24
-73 -22 -12 2 -23 25 -37 71 l-19 67 -37 0 c-35 0 -38 -3 -65 -60 -16 -33 -30
-60 -32 -60 -5 0 -75 47 -102 68 l-23 19 22 70 23 71 -22 35 -21 35 -56 -15
c-31 -8 -58 -13 -60 -11 -7 8 -34 124 -34 150 0 23 8 32 49 52 45 23 49 28 56
73 7 47 7 47 -41 88 l-48 42 13 44 c23 76 49 119 69 112 9 -3 1 10 -19 32 -36
36 -37 37 -66 21 -33 -16 -43 -46 -43 -121 0 -47 -11 -55 -82 -55 -59 0 -68 7
-68 55 0 76 -10 105 -44 122 l-30 16 -43 -48 c-42 -48 -43 -48 -63 -30 -11 10
-34 40 -51 67 l-31 49 37 55 c36 55 36 57 24 100 -11 36 -18 44 -37 44 -21 0
-23 -3 -17 -27 3 -14 10 -46 14 -70 l9 -44 -43 -21 c-36 -18 -44 -27 -49 -57
-5 -33 -2 -40 34 -74 l40 -37 -21 -56 c-12 -30 -27 -58 -35 -61 -7 -3 -30 5
-49 17 l-36 22 -23 -21 c-20 -19 -22 -27 -15 -69 4 -26 8 -53 8 -60 1 -15 -85
-56 -103 -49 -6 3 -18 28 -25 56 -7 29 -19 51 -26 51 -7 0 -20 2 -27 5 -10 4
-24 -11 -42 -45 -27 -49 -28 -50 -54 -36 -15 8 -38 25 -51 39 -23 25 -23 26
-6 77 14 43 15 56 4 81 -10 25 -16 29 -36 25 -12 -3 -34 -9 -47 -12 -20 -5
-26 -1 -35 28 -6 18 -13 51 -17 73 -6 40 -5 40 40 62 43 21 46 26 46 60 0 31
-6 43 -35 66 -19 15 -35 35 -35 43 0 8 12 40 26 70 l26 55 43 -25 42 -25 22
23 c18 20 20 30 15 83 l-7 60 42 16 c62 25 68 23 86 -38 9 -33 21 -55 29 -55
8 0 21 -2 28 -5 10 -4 22 11 38 45 13 27 25 50 27 50 8 0 79 -49 90 -62 10
-11 8 -25 -7 -67 -18 -47 -19 -54 -5 -81 13 -26 19 -29 48 -23 50 9 68 22 31
23 -30 0 -32 3 -39 46 -3 26 -4 68 0 95 l7 48 46 6 c67 9 67 9 80 54 12 39 11
43 -23 97 -42 65 -40 74 27 148 l37 41 46 -47 45 -47 29 17 c30 17 41 48 41
123 0 20 3 39 7 43 4 4 37 6 73 4 57 -3 65 -6 67 -23z"/>
<path d="M6245 6423 c-36 -10 -66 -36 -93 -82 -54 -93 -27 -241 54 -291 41
-26 98 -25 140 0 77 48 105 198 54 289 -34 62 -102 98 -155 84z"/>
<path d="M5575 6068 c-35 -27 -55 -75 -55 -133 0 -90 50 -155 119 -155 20 0
47 7 60 16 31 22 61 90 61 139 0 49 -30 117 -61 139 -33 23 -91 20 -124 -6z"/>
<path d="M6593 5888 c-6 -14 -25 -41 -42 -61 l-31 -35 24 -15 c22 -15 25 -14
50 12 26 27 30 53 17 100 l-6 24 -12 -25z"/>
<path d="M6730 5673 c-117 -61 -131 -277 -23 -357 99 -73 226 21 227 168 2
143 -104 240 -204 189z"/>
<path d="M2436 4441 c-58 -38 -56 -7 -56 -816 0 -681 1 -749 16 -775 13 -20
79 -62 253 -156 130 -70 603 -328 1051 -572 448 -245 839 -458 869 -473 91
-49 168 -31 203 49 20 44 20 67 13 1356 -4 814 -10 1320 -16 1336 -6 14 -22
34 -37 45 -27 20 -45 20 -1147 23 -1096 2 -1121 2 -1149 -17z m1228 -431 c154
-23 276 -84 391 -195 75 -73 112 -128 151 -223 l23 -57 91 -5 92 -5 -155 -160
c-135 -140 -156 -158 -169 -145 -8 8 -74 80 -147 160 l-133 145 81 3 c44 2 81
6 81 10 0 22 -77 117 -123 151 -188 142 -449 123 -605 -43 -31 -34 -66 -80
-76 -104 l-19 -42 -60 0 -59 0 151 -159 c83 -87 151 -161 151 -165 0 -3 -36
-6 -80 -6 -44 0 -80 -3 -80 -6 0 -16 65 -97 103 -127 179 -147 428 -142 597
10 29 26 65 70 82 100 l30 53 125 0 c145 0 139 11 73 -125 -88 -181 -267 -317
-473 -359 -158 -33 -304 -13 -457 61 -79 39 -109 61 -177 130 -67 67 -90 99
-125 172 l-43 90 -87 1 c-49 0 -88 3 -88 6 0 3 65 76 145 162 l145 157 -61 3
-60 3 6 32 c12 55 72 170 122 231 98 121 255 214 408 241 87 16 141 17 229 5z
m-5 -446 c71 -21 142 -90 160 -157 29 -101 -13 -206 -103 -262 -67 -41 -168
-47 -244 -15 -150 65 -190 252 -79 368 71 75 162 97 266 66z"/>
<path d="M5453 3498 c3 -13 36 -178 73 -368 l68 -344 17 39 c9 22 26 61 38 88
14 34 17 47 8 47 -15 0 -70 55 -86 87 -6 12 -11 38 -11 58 0 20 5 46 11 58 17
32 71 87 86 87 10 0 13 22 13 88 l0 87 -53 22 c-28 12 -78 33 -111 48 l-58 26
5 -23z"/>
<path d="M6685 3339 c-219 -99 -407 -179 -416 -179 -9 0 -121 47 -249 105
-129 58 -235 105 -237 105 -2 0 -3 -26 -3 -57 1 -54 3 -59 33 -78 45 -29 77
-81 77 -127 0 -51 -32 -112 -74 -140 l-33 -23 53 -120 c64 -142 70 -195 29
-244 -33 -39 -82 -54 -159 -49 l-62 4 32 -166 c72 -371 89 -450 95 -450 11 0
1525 824 1541 839 7 6 -211 744 -222 754 -3 3 -185 -76 -405 -174z m65 -307
c0 -171 -1 -180 -26 -230 -95 -191 -401 -273 -693 -186 -48 14 -52 17 -47 39
9 34 -9 107 -46 192 l-32 73 21 22 c30 34 54 85 62 134 l6 43 124 -54 c68 -30
131 -55 140 -55 9 0 120 45 246 99 127 55 233 100 238 100 4 1 7 -79 7 -177z"/>
<path d="M2271 7855 c17 -48 35 -99 40 -112 l9 -24 45 32 c85 61 85 60 -2 113
-42 26 -87 55 -100 63 -23 15 -23 15 8 -72z"/>
<path d="M7895 7573 c-82 -42 -151 -141 -142 -200 12 -74 85 -130 155 -118 84
14 192 130 192 204 0 100 -113 163 -205 114z"/>
<path d="M1712 7452 c-17 -9 -41 -30 -53 -45 l-22 -29 54 -46 c29 -26 56 -47
60 -47 16 0 69 80 69 105 0 26 -30 62 -61 73 -10 3 -31 -2 -47 -11z"/>
<path d="M1476 6998 c84 -121 75 -117 118 -58 21 29 39 57 42 64 3 8 -31 23
-100 44 -57 18 -107 32 -110 32 -4 0 19 -37 50 -82z"/>
<path d="M822 5883 c-7 -3 23 -33 74 -71 48 -37 90 -66 93 -64 5 2 22 47 45
120 7 22 7 22 -96 21 -57 0 -109 -3 -116 -6z"/>
<path d="M5930 623 l-37 -38 4 -80 c5 -68 9 -84 30 -107 87 -93 187 -41 187
96 -1 116 -33 166 -107 166 -32 0 -46 -7 -77 -37z"/>
<path d="M5512 460 c-45 -11 -72 -38 -72 -72 0 -57 59 -84 118 -54 47 24 64
50 60 93 -3 36 -5 38 -38 40 -19 1 -50 -2 -68 -7z"/>
</g>
</svg>
